<?xml version="1.0" encoding="utf-8"?>
<!-- Generator: Adobe Illustrator 23.0.1, SVG Export Plug-In . SVG Version: 6.00 Build 0)  -->
<svg version="1.1" id="Capa_1" xmlns="http://www.w3.org/2000/svg" xmlns:xlink="http://www.w3.org/1999/xlink" x="0px" y="0px"
	 viewBox="25 85 745 110" style="enable-background:new 25 85 745 110;" xml:space="preserve">
<style type="text/css">
	.st0{fill:#FFFFFF;}
	.st1{fill:#FFF031;}
	.st2{font-family:'PlutoRegular';}
	.st3{font-size:29.9674px;}
</style>
<g>
	<g>
		<path class="st0" d="M39.898,96.481h37.81c5.964,0,11.51,0.894,16.639,2.684c5.129,1.788,9.561,4.394,13.299,7.813
			c3.737,3.42,6.659,7.653,8.767,12.702c2.106,5.051,3.161,10.875,3.161,17.474c0,6.521-1.055,12.305-3.161,17.354
			c-2.108,5.051-5.03,9.286-8.767,12.703c-3.738,3.42-8.17,6.005-13.299,7.753c-5.128,1.75-10.675,2.624-16.639,2.624h-37.81V96.481
			z M62.799,116.28v41.509h13.836c5.725,0,10.357-1.79,13.896-5.367c3.537-3.579,5.308-8.667,5.308-15.268
			c0-6.758-1.771-11.927-5.308-15.506c-3.539-3.578-8.171-5.367-13.896-5.367H62.799z"/>
		<path class="st0" d="M316.965,152.779v24.809h-21.947V96.481h63.694v19.919h-41.747v16.46h35.305v19.92H316.965z"/>
		<path class="st0" d="M369.446,96.481h22.901v81.107h-22.901V96.481z"/>
		<path class="st0" d="M431.707,132.978v44.61h-22.9V96.481h19.799l36.976,44.728V96.481h22.901v81.107h-19.92L431.707,132.978z"/>
		<path class="st0" d="M504.942,96.481h37.81c5.964,0,11.51,0.894,16.639,2.684c5.129,1.788,9.561,4.394,13.299,7.813
			c3.737,3.42,6.659,7.653,8.766,12.702c2.106,5.051,3.162,10.875,3.162,17.474c0,6.521-1.056,12.305-3.162,17.354
			c-2.107,5.051-5.029,9.286-8.766,12.703c-3.738,3.42-8.17,6.005-13.299,7.753c-5.129,1.75-10.675,2.624-16.639,2.624h-37.81
			V96.481z M527.843,116.28v41.509h13.837c5.725,0,10.357-1.79,13.895-5.367c3.537-3.579,5.308-8.667,5.308-15.268
			c0-6.758-1.771-11.927-5.308-15.506c-3.539-3.578-8.17-5.367-13.895-5.367H527.843z"/>
		<path class="st0" d="M596.664,177.588V96.481h66.079v19.919h-44.133v10.735h35.425v18.726h-35.425v11.809h44.133v19.919H596.664z"
			/>
		<path class="st0" d="M675.623,96.481h41.15c3.895,0,7.652,0.557,11.271,1.669c3.618,1.115,6.818,2.785,9.602,5.01
			c2.782,2.227,5.028,5.03,6.74,8.409c1.708,3.382,2.563,7.336,2.563,11.869c0,6.124-1.848,11.271-5.546,15.446
			c-3.697,4.174-8.45,7.018-14.253,8.528c1.748,1.511,3.459,2.963,5.129,4.353c1.67,1.393,3.339,2.624,5.01,3.698
			c1.67,1.073,3.339,1.949,5.01,2.624c1.669,0.676,3.339,1.013,5.01,1.013c1.112,0,2.445-0.119,3.995-0.358
			c1.551-0.238,2.881-0.555,3.996-0.954l2.146,17.891c-1.669,0.876-3.697,1.611-6.083,2.207c-2.386,0.596-4.971,0.894-7.753,0.894
			c-4.771,0-9.225-1.231-13.359-3.697c-4.135-2.464-8.012-5.367-11.629-8.707c-3.619-3.339-6.999-6.698-10.139-10.079
			c-3.142-3.378-6.103-5.982-8.886-7.813h-1.074v29.103h-22.9V96.481z M698.524,116.28v16.579h15.983
			c2.783,0,4.95-0.793,6.501-2.386c1.55-1.589,2.326-3.537,2.326-5.844c0-2.305-0.776-4.273-2.326-5.904
			c-1.551-1.629-3.718-2.445-6.501-2.445H698.524z"/>
	</g>
	<g>
		<path class="st1" d="M278.734,120.515c-2.108-5.129-5.03-9.561-8.767-13.299c-3.739-3.737-8.17-6.659-13.299-8.766
			c-5.129-2.106-10.675-3.162-16.639-3.162c-5.964,0-11.471,1.056-16.52,3.162c-5.05,2.107-9.443,5.029-13.18,8.766
			c-1.702,1.701-3.225,3.554-4.588,5.543c-1.363-1.989-2.886-3.842-4.587-5.543c-3.739-3.737-8.17-6.659-13.299-8.766
			c-5.129-2.106-10.675-3.162-16.639-3.162c-5.964,0-11.471,1.056-16.52,3.162c-5.05,2.107-9.443,5.029-13.18,8.766
			c-3.738,3.738-6.661,8.17-8.766,13.299c-2.108,5.129-3.161,10.675-3.161,16.639c0,5.964,1.053,11.471,3.161,16.52
			c2.106,5.051,5.028,9.444,8.766,13.18c3.737,3.738,8.13,6.66,13.18,8.766c5.049,2.106,10.556,3.161,16.52,3.161
			c5.964,0,11.51-1.055,16.639-3.161c5.129-2.106,9.56-5.028,13.299-8.766c1.701-1.7,3.224-3.544,4.587-5.517
			c1.363,1.973,2.887,3.816,4.588,5.517c3.737,3.738,8.13,6.66,13.18,8.766c5.049,2.106,10.556,3.161,16.52,3.161
			c5.964,0,11.51-1.055,16.639-3.161c5.129-2.106,9.56-5.028,13.299-8.766c3.737-3.736,6.659-8.129,8.767-13.18
			c2.106-5.049,3.161-10.556,3.161-16.52C281.895,131.19,280.84,125.644,278.734,120.515z M189.226,145.026
			c-0.954,2.466-2.266,4.613-3.936,6.44c-1.67,1.831-3.698,3.261-6.083,4.294c-2.385,1.034-5.009,1.55-7.872,1.55
			c-2.863,0-5.468-0.516-7.813-1.55c-2.347-1.033-4.374-2.464-6.083-4.294c-1.711-1.827-3.041-3.975-3.996-6.44
			c-0.954-2.464-1.431-5.088-1.431-7.872c0-2.863,0.477-5.526,1.431-7.992c0.954-2.464,2.285-4.611,3.996-6.44
			c1.709-1.829,3.737-3.26,6.083-4.294c2.344-1.033,4.95-1.551,7.813-1.551c2.863,0,5.487,0.518,7.872,1.551
			c2.386,1.034,4.414,2.466,6.083,4.294c1.67,1.83,2.982,3.977,3.936,6.44c0.954,2.466,1.431,5.129,1.431,7.992
			C190.657,139.938,190.181,142.562,189.226,145.026z M258.04,145.026c-0.954,2.466-2.266,4.613-3.936,6.44
			c-1.67,1.831-3.698,3.261-6.083,4.294c-2.385,1.034-5.009,1.55-7.872,1.55c-2.863,0-5.468-0.516-7.813-1.55
			c-2.347-1.033-4.374-2.464-6.083-4.294c-1.711-1.827-3.041-3.975-3.996-6.44c-0.954-2.464-1.431-5.088-1.431-7.872
			c0-2.863,0.477-5.526,1.431-7.992c0.954-2.464,2.285-4.611,3.996-6.44c1.709-1.829,3.737-3.26,6.083-4.294
			c2.344-1.033,4.95-1.551,7.813-1.551c2.863,0,5.487,0.518,7.872,1.551c2.386,1.034,4.414,2.466,6.083,4.294
			c1.67,1.83,2.982,3.977,3.936,6.44c0.954,2.466,1.431,5.129,1.431,7.992C259.471,139.938,258.994,142.562,258.04,145.026z"/>
	</g>
</g>
</svg>
